<svg width="30" height="30" viewBox="0 0 30 30" fill="none" xmlns="http://www.w3.org/2000/svg">
<g clip-path="url(#clip0_212_25328)">
<path d="M25.7834 0H24.4936C23.9266 0 23.9266 0.879033 24.4936 0.879033H25.7834C27.1154 0.879033 28.1992 1.95884 28.1992 3.28606V13.4578C28.1992 14.785 27.1155 15.8649 25.7834 15.8649H24.3205C24.224 15.8649 24.1302 15.8966 24.0535 15.9553L21.3691 18.0086V16.3044C21.3691 16.0616 21.1724 15.8649 20.9296 15.8649H15.5804C15.1423 15.8649 14.7213 15.7492 14.35 15.5294V10.5956C14.35 9.67142 13.8794 8.85491 13.1646 8.37185V3.28606C13.1646 1.95884 14.2483 0.879033 15.5804 0.879033H21.7393C22.3062 0.879033 22.3062 0 21.7393 0H15.5804C13.7636 0 12.2855 1.47414 12.2855 3.28606V7.98555C12.0843 7.9375 11.8746 7.9113 11.6589 7.9113H3.61301C2.12914 7.9113 0.921875 9.11546 0.921875 10.5956V11.5446C0.921875 12.1116 1.80091 12.1116 1.80091 11.5446V10.5956C1.80091 9.60016 2.61378 8.79033 3.61301 8.79033H11.6589C12.6581 8.79033 13.4711 9.60016 13.4711 10.5956V15.7044C13.4658 15.7432 13.466 15.7823 13.4711 15.8208V18.6168C13.4711 18.6721 13.4677 18.7271 13.4628 18.7818H12.5563C11.5576 18.7818 10.725 19.5027 10.5523 20.4501C10.5124 20.4652 10.474 20.4862 10.4384 20.5137L8.4726 22.0315V20.8616C8.4726 20.6188 8.27587 20.4221 8.03308 20.4221H3.61301C2.61378 20.4221 1.80091 19.6122 1.80091 18.6168V14.1817C1.80091 13.6148 0.921875 13.6148 0.921875 14.1817V18.6169C0.921875 20.097 2.12914 21.3011 3.61301 21.3011H7.59362V22.9262C7.59362 23.2787 8.02171 23.4902 8.30177 23.2741L10.519 21.5622V26.5067C10.519 27.6275 11.433 28.5392 12.5564 28.5392H15.2536V29.5648C15.2536 29.9173 15.6817 30.129 15.9617 29.9127L17.7406 28.5392H18.2661C19.3895 28.5392 20.3036 27.6274 20.3036 26.5067V25.7264C20.3036 25.1595 19.4245 25.1595 19.4245 25.7264V26.5067C19.4245 27.1428 18.9049 27.6602 18.2661 27.6602H17.5906C17.4934 27.6602 17.3989 27.6924 17.3221 27.7518L16.1326 28.6701V28.0996C16.1326 27.8569 15.9358 27.6601 15.693 27.6601H12.5563C11.9176 27.6601 11.398 27.1427 11.398 26.5067V20.8144C11.398 20.1783 11.9176 19.6609 12.5563 19.6609H18.2661C18.9048 19.6609 19.4245 20.1784 19.4245 20.8144V22.9721C19.4245 23.539 20.3036 23.539 20.3036 22.9721V20.8145C20.3036 19.6937 19.3895 18.782 18.2661 18.782H14.3451C14.3484 18.727 14.3501 16.5071 14.3501 16.5071C14.7376 16.663 15.1531 16.7439 15.5805 16.7439H20.4902V18.8982C20.4902 19.2498 20.9164 19.4616 21.1967 19.2473L24.4694 16.7439H25.7835C27.6002 16.7439 29.0783 15.2698 29.0783 13.4578V3.28606C29.0782 1.47414 27.6001 0 25.7834 0Z" fill="#1E1E1E"/>
<path d="M21.7806 3.24729C21.2226 3.10483 20.6539 3.54575 20.6539 4.1224C20.6539 4.75243 20.4243 5.35961 20.0077 5.83177L18.7967 7.20206C18.7183 7.08175 18.5828 7.00211 18.4285 7.00211H16.0645C15.8217 7.00211 15.625 7.1989 15.625 7.44163V12.7607C15.625 13.0034 15.8217 13.2002 16.0645 13.2002H18.4285C18.6062 13.2002 18.7588 13.0946 18.8281 12.9431C19.3067 13.2355 19.8613 13.3936 20.4256 13.3936H24.6034C25.2419 13.3936 25.7685 12.8397 25.7386 12.2029C25.7253 11.9209 25.7398 8.13442 25.7398 8.05033C25.7398 7.42376 25.23 6.91392 24.6047 6.91392L22.4322 6.90741L22.5221 6.69439C22.9332 5.72083 22.8655 4.59192 22.3413 3.67439C22.2189 3.46002 22.0197 3.30841 21.7806 3.24729C22.0197 3.30841 21.5414 3.18623 21.7806 3.24729C22.0197 3.30841 21.2226 3.10483 21.7806 3.24729ZM17.989 12.3211H16.504V7.88115H17.989V12.3211ZM24.6034 7.79289C24.7454 7.79289 24.8608 7.90834 24.8608 8.05027C24.8608 8.1339 24.86 8.36086 24.8588 8.66858C24.8523 10.3676 24.8479 11.9767 24.8605 12.2441C24.865 12.3407 24.8181 12.405 24.7897 12.4348C24.7406 12.4862 24.6745 12.5145 24.6034 12.5145H20.4256C19.9276 12.5145 19.4402 12.3419 19.0531 12.0286L18.868 11.8788V8.44877L20.6666 6.41357C21.2253 5.78043 21.5329 4.96674 21.5329 4.12234C21.5329 4.09749 21.5669 4.09105 21.5781 4.11039C21.9673 4.79152 22.0175 5.62959 21.7124 6.35233L21.3655 7.17388C21.3082 7.30942 21.3227 7.46454 21.4037 7.58726C21.4849 7.70997 21.622 7.78392 21.769 7.78439L24.6034 7.79289Z" fill="#1E1E1E"/>
<path d="M4.68561 15.2658C4.44282 15.2658 4.24609 15.4626 4.24609 15.7053C4.24609 15.948 4.44282 16.1448 4.68561 16.1448H5.98119L5.73916 17.6086C5.69955 17.8481 5.86164 18.0743 6.10109 18.114C6.12541 18.118 6.14949 18.1199 6.17329 18.1199C6.38449 18.1199 6.57079 17.9673 6.60642 17.752L6.87212 16.1449H7.93241L7.69038 17.6087C7.65077 17.8481 7.81286 18.0744 8.05231 18.114C8.07663 18.1181 8.10071 18.12 8.12451 18.12C8.33571 18.12 8.52201 17.9673 8.55764 17.7521L8.82334 16.1449H10.5869C10.8296 16.1449 11.0264 15.9481 11.0264 15.7054C11.0264 15.4627 10.8296 15.2659 10.5869 15.2659H8.96867L9.14594 14.1937H10.5869C10.8296 14.1937 11.0264 13.9969 11.0264 13.7542C11.0264 13.5115 10.8296 13.3147 10.5869 13.3147H9.29128L9.5333 11.8509C9.57292 11.6114 9.41082 11.3851 9.17138 11.3455C8.93163 11.3058 8.70566 11.468 8.66605 11.7075L8.40035 13.3146H7.34006L7.58208 11.8508C7.6217 11.6113 7.45961 11.3851 7.22016 11.3455C6.98012 11.3057 6.7545 11.4679 6.71483 11.7074L6.44913 13.3146H4.68561C4.44282 13.3146 4.24609 13.5113 4.24609 13.7541C4.24609 13.9968 4.44282 14.1936 4.68561 14.1936H6.30379L6.12652 15.2658H4.68561ZM7.19478 14.1936H8.25507L8.0778 15.2658H7.01751L7.19478 14.1936Z" fill="#1E1E1E"/>
<path d="M15.4068 21.9287C15.0519 21.6365 14.5797 21.5212 14.1061 21.6364C13.4992 21.7838 12.8867 22.3512 12.8867 23.2864C12.8867 23.8685 13.0992 24.3737 13.5361 24.8311C13.8931 25.2047 14.4082 25.5599 15.2063 25.983C15.2707 26.0172 15.3414 26.0342 15.4121 26.0342C15.4829 26.0342 15.5536 26.0172 15.618 25.983C17.0103 25.2449 17.9375 24.5039 17.9375 23.2864C17.9375 22.3461 17.3033 21.7845 16.6747 21.6451C16.2025 21.5403 15.7447 21.6515 15.4068 21.9287ZM17.0584 23.2864C17.0584 23.9431 16.6228 24.4287 15.4121 25.0952C14.2013 24.4287 13.7657 23.943 13.7657 23.2864C13.7657 22.7978 14.0486 22.5549 14.3134 22.4906C14.3623 22.4787 14.4145 22.472 14.4683 22.472C14.6675 22.472 14.8865 22.5641 15.0215 22.8258C15.0984 22.9748 15.254 23.0672 15.4208 23.0637C15.5883 23.0604 15.7395 22.962 15.8103 22.8101C15.9526 22.5053 16.2517 22.4517 16.4842 22.5033C16.7618 22.5648 17.0584 22.8029 17.0584 23.2864Z" fill="#1E1E1E"/>
</g>
<defs>
<clipPath id="clip0_212_25328">
<rect width="30" height="30" fill="white"/>
</clipPath>
</defs>
</svg>
