<svg width="30" height="30" viewBox="0 0 30 30" fill="none" xmlns="http://www.w3.org/2000/svg">
<g clip-path="url(#clip0_212_25369)">
<path d="M3.75 2.8125H4.6875V3.75H3.75V2.8125Z" fill="#1E1E1E"/>
<path d="M5.625 2.8125H6.5625V3.75H5.625V2.8125Z" fill="#1E1E1E"/>
<path d="M7.5 2.8125H8.4375V3.75H7.5V2.8125Z" fill="#1E1E1E"/>
<path d="M4.21875 13.125H11.7188C11.8431 13.125 11.9623 13.0756 12.0502 12.9877C12.1381 12.8998 12.1875 12.7806 12.1875 12.6562V7.96875C12.1875 7.84443 12.1381 7.7252 12.0502 7.63729C11.9623 7.54939 11.8431 7.5 11.7188 7.5H4.21875C4.09443 7.5 3.9752 7.54939 3.88729 7.63729C3.79939 7.7252 3.75 7.84443 3.75 7.96875V12.6562C3.75 12.7806 3.79939 12.8998 3.88729 12.9877C3.9752 13.0756 4.09443 13.125 4.21875 13.125ZM4.6875 8.4375H11.25V12.1875H4.6875V8.4375Z" fill="#1E1E1E"/>
<path d="M15.9375 7.96875H23.4375V8.90625H15.9375V7.96875Z" fill="#1E1E1E"/>
<path d="M14.0625 9.84375H22.5V10.7812H14.0625V9.84375Z" fill="#1E1E1E"/>
<path d="M14.0625 11.7188H20.625V12.6562H14.0625V11.7188Z" fill="#1E1E1E"/>
<path d="M5.625 15H17.8125V15.9375H5.625V15Z" fill="#1E1E1E"/>
<path d="M3.75 16.875H15.9375V17.8125H3.75V16.875Z" fill="#1E1E1E"/>
<path d="M3.75 18.75H14.0625V19.6875H3.75V18.75Z" fill="#1E1E1E"/>
<path d="M3.75 20.625H14.0625V21.5625H3.75V20.625Z" fill="#1E1E1E"/>
<path d="M3.75 22.5H14.0625V23.4375H3.75V22.5Z" fill="#1E1E1E"/>
<path d="M3.75 15H4.6875V15.9375H3.75V15Z" fill="#1E1E1E"/>
<path d="M26.7188 3.75H26.25V3.28125C26.25 2.65965 26.0031 2.06351 25.5635 1.62397C25.124 1.18443 24.5279 0.9375 23.9062 0.9375H3.28125C2.65965 0.9375 2.06351 1.18443 1.62397 1.62397C1.18443 2.06351 0.9375 2.65965 0.9375 3.28125V23.9062C0.9375 24.5279 1.18443 25.124 1.62397 25.5635C2.06351 26.0031 2.65965 26.25 3.28125 26.25H3.75V26.7188C3.75 27.3404 3.99693 27.9365 4.43647 28.376C4.87601 28.8156 5.47215 29.0625 6.09375 29.0625H26.7188C27.3404 29.0625 27.9365 28.8156 28.376 28.376C28.8156 27.9365 29.0625 27.3404 29.0625 26.7188V6.09375C29.0625 5.47215 28.8156 4.87601 28.376 4.43647C27.9365 3.99693 27.3404 3.75 26.7188 3.75ZM25.8797 11.0344L27.8719 13.0266L26.5453 14.3531L24.5531 12.3609L25.8797 11.0344ZM17.4047 20.4609L17.775 19.5L19.4062 21.1313L18.4453 21.5016L17.4047 20.4609ZM17.4891 21.8672L16.7531 22.1531L17.0391 21.4172L17.4891 21.8672ZM18.9188 19.3219L18.2578 18.6609L23.8922 13.0266L24.5531 13.6875L18.9188 19.3219ZM25.2188 14.3531L25.8797 15.0141L20.2453 20.6484L19.5844 19.9875L25.2188 14.3531ZM1.875 3.28125C1.87611 2.90863 2.02463 2.55159 2.28811 2.28811C2.55159 2.02463 2.90863 1.87611 3.28125 1.875H23.9062C24.2789 1.87611 24.6359 2.02463 24.8994 2.28811C25.1629 2.55159 25.3114 2.90863 25.3125 3.28125V4.6875H1.875V3.28125ZM3.28125 25.3125C2.90863 25.3114 2.55159 25.1629 2.28811 24.8994C2.02463 24.6359 1.87611 24.2789 1.875 23.9062V5.625H25.3125V10.2797L17.2641 18.3281C17.2171 18.3747 17.1804 18.4306 17.1562 18.4922L15.5016 22.8C15.4675 22.8845 15.4592 22.9771 15.4775 23.0663C15.4958 23.1555 15.5401 23.2374 15.6047 23.3016C15.6934 23.389 15.813 23.4379 15.9375 23.4375C15.9954 23.438 16.0528 23.4268 16.1063 23.4047L20.4141 21.75C20.4757 21.7259 20.5315 21.6891 20.5781 21.6422L25.3125 16.9078V23.9062C25.3114 24.2789 25.1629 24.6359 24.8994 24.8994C24.6359 25.1629 24.2789 25.3114 23.9062 25.3125H3.28125ZM28.125 26.7188C28.1239 27.0914 27.9754 27.4484 27.7119 27.7119C27.4484 27.9754 27.0914 28.1239 26.7188 28.125H6.09375C5.72113 28.1239 5.36409 27.9754 5.10061 27.7119C4.83713 27.4484 4.68861 27.0914 4.6875 26.7188V26.25H23.9062C24.5279 26.25 25.124 26.0031 25.5635 25.5635C26.0031 25.124 26.25 24.5279 26.25 23.9062V15.9703L28.125 14.0953V26.7188ZM28.125 11.9531L26.25 10.0781V8.4375H28.125V11.9531ZM28.125 7.5H26.25V4.6875H26.7188C27.0914 4.68861 27.4484 4.83713 27.7119 5.10061C27.9754 5.36409 28.1239 5.72113 28.125 6.09375V7.5Z" fill="#1E1E1E"/>
<path d="M14.0625 7.96875H15V8.90625H14.0625V7.96875Z" fill="#1E1E1E"/>
</g>
<defs>
<clipPath id="clip0_212_25369">
<rect width="30" height="30" fill="white"/>
</clipPath>
</defs>
</svg>
