<svg width="1258" height="193" viewBox="0 0 1258 193" fill="none" xmlns="http://www.w3.org/2000/svg">
<path d="M-0.00925086 0.548484H52.4503V193H-0.00925086V0.548484ZM17.3773 193V155.529H112.104V193H17.3773ZM241.923 127.051V164.222H145.697V127.051H241.923ZM274.897 193H222.138L193.36 57.8043L163.683 193H112.123L161.585 0.548484H225.436L274.897 193ZM286.879 0.548484H375.011C390.998 0.548484 402.29 3.94586 408.885 10.7406C415.679 17.5354 419.077 26.5284 419.077 37.7198V62.3008C419.077 70.0948 418.078 76.8896 416.079 82.6851C414.28 88.4806 410.483 92.9772 404.688 96.1747C410.483 98.7727 414.28 102.67 416.079 107.866C418.078 113.062 419.077 119.457 419.077 127.051V155.829C419.077 167.02 415.679 176.013 408.885 182.808C402.29 189.603 390.998 193 375.011 193H286.879V0.548484ZM367.517 151.932V120.456C367.517 118.258 366.917 116.659 365.718 115.66C364.519 114.461 362.62 113.861 360.022 113.861H338.439V158.527H360.022C362.62 158.527 364.519 158.027 365.718 157.028C366.917 155.829 367.517 154.13 367.517 151.932ZM367.517 72.7927V41.6168C367.517 39.4185 366.917 37.8197 365.718 36.8205C364.519 35.6214 362.62 35.0219 360.022 35.0219H338.439V79.3877H360.022C362.62 79.3877 364.519 78.888 365.718 77.8888C366.917 76.6897 367.517 74.991 367.517 72.7927ZM531.378 139.341H486.113L429.456 0.548484H483.115L508.295 81.7858L531.677 0.548484H585.036L531.378 139.341ZM482.515 111.463H534.975V193H482.515V111.463ZM677.531 82.3853V44.6145C677.531 42.4162 676.932 40.8174 675.733 39.8182C674.534 38.6191 672.635 38.0196 670.037 38.0196H614.28V0.548484H685.925C701.912 0.548484 713.204 3.94586 719.799 10.7406C726.593 17.5354 729.991 26.5284 729.991 37.7198V87.4814C729.991 98.6728 726.593 107.666 719.799 114.461C713.204 121.255 701.912 124.653 685.925 124.653H614.28V88.9803H670.037C672.635 88.9803 674.534 88.4806 675.733 87.4814C676.932 86.2823 677.531 84.5836 677.531 82.3853ZM596.893 0.548484H649.353V193H596.893V0.548484ZM643.358 103.669H694.618L739.583 193H683.227L643.358 103.669ZM750.876 0.548484H803.336V193H750.876V0.548484ZM915.114 0.548484H963.077V193H918.112L875.245 91.9779V193H827.282V0.548484H872.247L915.114 103.369V0.548484ZM1013.5 18.5346H1065.96V193H1013.5V18.5346ZM1103.13 0.548484V38.0196H976.628V0.548484H1103.13ZM1212.44 79.3877V116.859H1158.48V79.3877H1212.44ZM1116.51 0.548484H1168.07V193H1116.51V0.548484ZM1205.84 0.548484H1257.4V193H1205.84V0.548484Z" fill="white"/>
</svg>
