<svg width="1258" height="193" viewBox="0 0 1258 193" fill="none" xmlns="http://www.w3.org/2000/svg">
<path d="M0.425442 0.548484H52.885V193H0.425442V0.548484ZM17.812 193V155.529H112.539V193H17.812ZM242.358 127.051V164.222H146.132V127.051H242.358ZM275.332 193H222.573L193.795 57.8043L164.118 193H112.558L162.02 0.548484H225.87L275.332 193ZM287.313 0.548484H375.445C391.433 0.548484 402.724 3.94586 409.319 10.7406C416.114 17.5354 419.511 26.5284 419.511 37.7198V62.3008C419.511 70.0948 418.512 76.8896 416.514 82.6851C414.715 88.4806 410.918 92.9772 405.123 96.1747C410.918 98.7727 414.715 102.67 416.514 107.866C418.512 113.062 419.511 119.457 419.511 127.051V155.829C419.511 167.02 416.114 176.013 409.319 182.808C402.724 189.603 391.433 193 375.445 193H287.313V0.548484ZM367.951 151.932V120.456C367.951 118.258 367.352 116.659 366.153 115.66C364.954 114.461 363.055 113.861 360.457 113.861H338.874V158.527H360.457C363.055 158.527 364.954 158.027 366.153 157.028C367.352 155.829 367.951 154.13 367.951 151.932ZM367.951 72.7927V41.6168C367.951 39.4185 367.352 37.8197 366.153 36.8205C364.954 35.6214 363.055 35.0219 360.457 35.0219H338.874V79.3877H360.457C363.055 79.3877 364.954 78.888 366.153 77.8888C367.352 76.6897 367.951 74.991 367.951 72.7927ZM531.812 139.341H486.547L429.891 0.548484H483.55L508.73 81.7858L532.112 0.548484H585.471L531.812 139.341ZM482.95 111.463H535.41V193H482.95V111.463ZM677.966 82.3853V44.6145C677.966 42.4162 677.366 40.8174 676.167 39.8182C674.968 38.6191 673.07 38.0196 670.472 38.0196H614.715V0.548484H686.359C702.347 0.548484 713.638 3.94586 720.233 10.7406C727.028 17.5354 730.425 26.5284 730.425 37.7198V87.4814C730.425 98.6728 727.028 107.666 720.233 114.461C713.638 121.255 702.347 124.653 686.359 124.653H614.715V88.9803H670.472C673.07 88.9803 674.968 88.4806 676.167 87.4814C677.366 86.2823 677.966 84.5836 677.966 82.3853ZM597.328 0.548484H649.788V193H597.328V0.548484ZM643.792 103.669H695.053L740.018 193H683.662L643.792 103.669ZM751.311 0.548484H803.77V193H751.311V0.548484ZM915.549 0.548484H963.512V193H918.547L875.68 91.9779V193H827.717V0.548484H872.682L915.549 103.369V0.548484ZM1013.93 18.5346H1066.39V193H1013.93V18.5346ZM1103.56 0.548484V38.0196H977.063V0.548484H1103.56ZM1212.87 79.3877V116.859H1158.91V79.3877H1212.87ZM1116.95 0.548484H1168.51V193H1116.95V0.548484ZM1206.28 0.548484H1257.84V193H1206.28V0.548484Z" fill="black"/>
</svg>
